<svg xmlns="http://www.w3.org/2000/svg" viewBox="0 0 128 160" role="img" aria-hidden="true">
  <defs>
    <linearGradient id="rocketBody" x1="0%" y1="0%" x2="100%" y2="100%">
      <stop offset="0%" stop-color="#ffffff"/>
      <stop offset="100%" stop-color="#d4e8ff"/>
    </linearGradient>
    <linearGradient id="rocketAccent" x1="0%" y1="0%" x2="100%" y2="100%">
      <stop offset="0%" stop-color="#2c89ff"/>
      <stop offset="100%" stop-color="#093b7a"/>
    </linearGradient>
  </defs>
  <g fill="none" fill-rule="evenodd">
    <path d="M64 10c12 18 36 38 36 68 0 25-16 63-36 63S28 103 28 78c0-30 24-50 36-68z" fill="url(#rocketBody)" stroke="#d4e8ff" stroke-width="4"/>
    <path d="M64 10c-8 12-23 22-23 52 0 15 8 36 23 36s23-21 23-36c0-30-15-40-23-52z" fill="url(#rocketAccent)" opacity="0.25"/>
    <circle cx="64" cy="74" r="18" fill="#0f3b80"/>
    <circle cx="64" cy="74" r="10" fill="#93d4ff"/>
    <path d="M32 92c12 12 32 12 32 12s20 0 32-12v40c0 6-8 8-16 8H48c-8 0-16-2-16-8V92z" fill="#c8e8ff"/>
    <path d="M32 92c14 18 40 18 40 18s26 0 40-18v18c0 8-10 14-20 14H52c-10 0-20-6-20-14V92z" fill="#3b87ff" opacity="0.35"/>
    <path d="M25 70c8 8 5 20 5 20s-12-1-17-7c-6-7-4-16 12-13z" fill="#0f3b80"/>
    <path d="M103 70c-8 8-5 20-5 20s12-1 17-7c6-7 4-16-12-13z" fill="#0f3b80"/>
  </g>
</svg>
