<svg width="229" height="81" viewBox="0 0 229 81" xmlns="http://www.w3.org/2000/svg">
  <defs>
    <linearGradient id="g" x1="0%" y1="0%" x2="100%" y2="100%">
      <stop offset="0%" stop-color="#003B5C"/>
      <stop offset="55%" stop-color="#2774AE"/>
      <stop offset="100%" stop-color="#4A9DD0"/>
    </linearGradient>
  </defs>
  <path d="M16.06 64.77L16.06 64.77Q9.66 64.77 6.24 60.77Q2.82 56.77 2.82 50.24L2.82 50.24L2.82 29.06L12.42 29.06L12.42 49.47Q12.42 52.48 14.21 54.30Q16 56.13 18.82 56.13L18.82 56.13Q21.63 56.13 23.42 54.30Q25.22 52.48 25.22 49.47L25.22 49.47L25.22 29.06L34.82 29.06L34.82 64L25.86 64L25.86 59.71Q24.51 62.27 21.95 63.52Q19.39 64.77 16.06 64.77ZM57.41 64.38L57.41 64.38Q51.07 64.38 47.58 60.96Q44.10 57.54 44.10 51.39L44.10 51.39L44.10 37.38L38.21 37.38L38.21 29.06L38.53 29.06Q44.10 29.06 44.10 23.68L44.10 23.68L44.10 21.12L53.70 21.12L53.70 29.06L61.89 29.06L61.89 37.38L53.70 37.38L53.70 50.75Q53.70 56.06 59.65 56.06L59.65 56.06Q60.54 56.06 61.89 55.87L61.89 55.87L61.89 64Q60.93 64.13 59.71 64.26Q58.50 64.38 57.41 64.38ZM83.58 64.77L83.58 64.77Q78.40 64.77 74.14 62.40Q69.89 60.03 67.36 55.90Q64.83 51.78 64.83 46.53L64.83 46.53Q64.83 41.22 67.36 37.12Q69.89 33.02 74.14 30.66Q78.40 28.29 83.58 28.29L83.58 28.29Q88.77 28.29 92.99 30.66Q97.22 33.02 99.74 37.12Q102.27 41.22 102.27 46.53L102.27 46.53Q102.27 51.78 99.74 55.90Q97.22 60.03 92.99 62.40Q88.77 64.77 83.58 64.77ZM83.58 56.13L83.58 56.13Q87.49 56.13 89.92 53.44Q92.35 50.75 92.35 46.53L92.35 46.53Q92.35 42.37 89.92 39.65Q87.49 36.93 83.58 36.93L83.58 36.93Q79.68 36.93 77.22 39.65Q74.75 42.37 74.75 46.53L74.75 46.53Q74.75 50.75 77.22 53.44Q79.68 56.13 83.58 56.13ZM116.22 76.80L106.62 76.80L106.62 29.06L115.58 29.06L115.58 32.70Q119.30 28.29 126.27 28.29L126.27 28.29Q131.26 28.29 135.30 30.72Q139.33 33.15 141.70 37.28Q144.06 41.41 144.06 46.53L144.06 46.53Q144.06 51.58 141.73 55.74Q139.39 59.90 135.36 62.34Q131.33 64.77 126.21 64.77L126.21 64.77Q123.26 64.77 120.67 63.90Q118.08 63.04 116.22 61.31L116.22 61.31L116.22 76.80ZM125.06 56.13L125.06 56.13Q129.02 56.13 131.58 53.44Q134.14 50.75 134.14 46.53L134.14 46.53Q134.14 42.37 131.58 39.65Q129.02 36.93 125.06 36.93L125.06 36.93Q121.15 36.93 118.69 39.62Q116.22 42.30 116.22 46.53L116.22 46.53Q116.22 50.82 118.69 53.47Q121.15 56.13 125.06 56.13ZM158.02 25.92L148.42 25.92L148.42 16.32L158.02 16.32L158.02 25.92ZM158.02 64L148.42 64L148.42 29.06L158.02 29.06L158.02 64ZM174.59 64.77L174.59 64.77Q168.96 64.77 165.66 62.08Q162.37 59.39 162.37 54.66L162.37 54.66Q162.37 50.24 165.44 47.36Q168.51 44.48 174.78 43.46L174.78 43.46L184.45 41.92L184.45 40.96Q184.45 38.98 182.88 37.63Q181.31 36.29 178.62 36.29L178.62 36.29Q176.06 36.29 174.11 37.70Q172.16 39.10 171.26 41.41L171.26 41.41L163.58 37.76Q165.12 33.41 169.31 30.85Q173.50 28.29 179.07 28.29L179.07 28.29Q183.49 28.29 186.88 29.89Q190.27 31.49 192.16 34.34Q194.05 37.18 194.05 40.96L194.05 40.96L194.05 64L185.09 64L185.09 60.74Q181.12 64.77 174.59 64.77ZM172.29 54.34L172.29 54.34Q172.29 55.94 173.50 56.83Q174.72 57.73 176.51 57.73L176.51 57.73Q180.10 57.73 182.27 55.49Q184.45 53.25 184.45 50.05L184.45 50.05L184.45 48.96L176.51 50.37Q174.46 50.75 173.38 51.68Q172.29 52.61 172.29 54.34Z" fill="#17181C"/>
  <polygon points="202.7,64 224.4,64 213.6,46.1" fill="url(#g)"/>
</svg>
